<svg width="24" height="24" viewBox="0 0 24 24" fill="none" xmlns="http://www.w3.org/2000/svg">
<path d="M11.3 8.29999L9.225 6.19999C9.025 5.99999 8.925 5.76666 8.925 5.49999C8.925 5.23333 9.025 4.99999 9.225 4.79999L11.303 2.69999C11.501 2.49999 11.7363 2.39999 12.009 2.39999C12.2823 2.39999 12.521 2.49999 12.725 2.69999L14.8 4.79999C15 4.99999 15.1 5.23333 15.1 5.49999C15.1 5.76666 15 5.99999 14.8 6.19999L12.722 8.29999C12.524 8.49999 12.2887 8.59999 12.016 8.59999C11.7427 8.59999 11.504 8.49999 11.3 8.29999ZM2 20C1.71667 20 1.479 19.904 1.287 19.712C1.095 19.52 0.999337 19.2827 1 19V16C1 15.4333 1.196 14.9583 1.588 14.575C1.98 14.1917 2.45067 14 3 14H6.275C6.60834 14 6.925 14.0833 7.225 14.25C7.525 14.4167 7.76667 14.6417 7.95 14.925C8.43334 15.575 9.02934 16.0833 9.738 16.45C10.4467 16.8167 11.2007 17 12 17C12.8167 17 13.5793 16.8167 14.288 16.45C14.9967 16.0833 15.584 15.575 16.05 14.925C16.2667 14.6417 16.521 14.4167 16.813 14.25C17.105 14.0833 17.409 14 17.725 14H21C21.5667 14 22.0417 14.1917 22.425 14.575C22.8083 14.9583 23 15.4333 23 16V19C23 19.2833 22.904 19.521 22.712 19.713C22.52 19.905 22.2827 20.0007 22 20H17C16.7167 20 16.479 19.904 16.287 19.712C16.095 19.52 15.9993 19.2827 16 19V17.725C15.4167 18.1417 14.7873 18.4583 14.112 18.675C13.4367 18.8917 12.7327 19 12 19C11.2833 19 10.5833 18.8873 9.9 18.662C9.21667 18.4367 8.58334 18.116 8 17.7V19C8 19.2833 7.904 19.521 7.712 19.713C7.52 19.905 7.28267 20.0007 7 20H2ZM4 13C3.16667 13 2.45834 12.7083 1.875 12.125C1.29167 11.5417 1 10.8333 1 9.99999C1 9.14999 1.29167 8.43733 1.875 7.86199C2.45834 7.28666 3.16667 6.99933 4 6.99999C4.85 6.99999 5.56267 7.28766 6.138 7.86299C6.71334 8.43833 7.00067 9.15066 7 9.99999C7 10.8333 6.71234 11.5417 6.137 12.125C5.56167 12.7083 4.84934 13 4 13ZM20 13C19.1667 13 18.4583 12.7083 17.875 12.125C17.2917 11.5417 17 10.8333 17 9.99999C17 9.14999 17.2917 8.43733 17.875 7.86199C18.4583 7.28666 19.1667 6.99933 20 6.99999C20.85 6.99999 21.5627 7.28766 22.138 7.86299C22.7133 8.43833 23.0007 9.15066 23 9.99999C23 10.8333 22.7123 11.5417 22.137 12.125C21.5617 12.7083 20.8493 13 20 13Z" fill="#6D8BB7"/>
</svg>
