<svg xmlns="http://www.w3.org/2000/svg" width="12" height="12" viewBox="0 0 12 12" fill="none">
  <g clip-path="url(#clip0_6_18)">
    <path d="M11.8903 11.3559L8.24661 7.68994C8.92574 6.87656 9.33505 5.83012 9.33505 4.6875C9.33505 2.09869 7.23637 0 4.64755 0C2.05874 0 -0.0399475 2.09869 -0.0399475 4.6875C-0.0399475 7.27631 2.05874 9.375 4.64755 9.375C5.82374 9.375 6.89811 8.94075 7.72124 8.22487L11.3599 11.8864C11.5063 12.0328 11.7439 12.0328 11.8903 11.8864C12.0366 11.7399 12.0366 11.5026 11.8903 11.3559H11.8903ZM4.64755 8.63119C2.46955 8.63119 0.703865 6.8655 0.703865 4.6875C0.703865 2.5095 2.46955 0.743812 4.64755 0.743812C6.82555 0.743812 8.59124 2.5095 8.59124 4.6875C8.59124 6.8655 6.82555 8.63119 4.64755 8.63119Z" fill="#6D8BB7"/>
  </g>
  <defs>
    <clipPath id="clip0_6_18">
      <rect width="12" height="12" fill="white"/>
    </clipPath>
  </defs>
</svg>