<svg width="36" height="36" viewBox="0 0 36 36" fill="none" xmlns="http://www.w3.org/2000/svg">
<g clip-path="url(#clip0_12_59)">
<path d="M32.94 14H31V9.00001C31 8.7348 30.8946 8.48044 30.7071 8.29291C30.5196 8.10537 30.2652 8.00001 30 8.00001H6C5.73478 8.00001 5.48043 7.89466 5.29289 7.70712C5.10536 7.51958 5 7.26523 5 7.00001C5 6.7348 5.10536 6.48044 5.29289 6.29291C5.48043 6.10537 5.73478 6.00001 6 6.00001H29.6C29.8652 6.00001 30.1196 5.89466 30.3071 5.70712C30.4946 5.51958 30.6 5.26523 30.6 5.00001C30.6 4.7348 30.4946 4.48044 30.3071 4.29291C30.1196 4.10537 29.8652 4.00001 29.6 4.00001H6C5.61389 3.99205 5.23 4.06024 4.87025 4.20068C4.5105 4.34112 4.18195 4.55106 3.90336 4.81851C3.62476 5.08596 3.40159 5.40567 3.24659 5.75939C3.09159 6.11311 3.0078 6.4939 3 6.88001V27.88C3.00131 28.4232 3.10976 28.9608 3.31915 29.4621C3.52854 29.9633 3.83475 30.4183 4.22025 30.801C4.60575 31.1837 5.06295 31.4866 5.56568 31.6923C6.06842 31.8981 6.6068 32.0026 7.15 32H30C30.2652 32 30.5196 31.8947 30.7071 31.7071C30.8946 31.5196 31 31.2652 31 31V26H32.94C33.0662 26.0096 33.1931 25.9932 33.3128 25.9521C33.4324 25.9109 33.5425 25.8457 33.6361 25.7605C33.7297 25.6753 33.805 25.5719 33.8572 25.4566C33.9095 25.3413 33.9376 25.2166 33.94 25.09V15.09C33.9433 14.8152 33.8417 14.5495 33.6559 14.3469C33.4701 14.1444 33.2141 14.0204 32.94 14ZM32 24H23.42C22.3952 23.9635 21.4267 23.5218 20.7274 22.7718C20.028 22.0218 19.6549 21.0249 19.69 20C19.6549 18.9751 20.028 17.9782 20.7274 17.2283C21.4267 16.4783 22.3952 16.0365 23.42 16H32V24Z" fill="#1B5E2E"/>
<path d="M24.04 21.42C24.8684 21.42 25.54 20.7484 25.54 19.92C25.54 19.0916 24.8684 18.42 24.04 18.42C23.2116 18.42 22.54 19.0916 22.54 19.92C22.54 20.7484 23.2116 21.42 24.04 21.42Z" fill="#1B5E2E"/>
</g>
<defs>
<clipPath id="clip0_12_59">
<rect width="36" height="36" fill="white"/>
</clipPath>
</defs>
</svg>
